<svg width="26" height="26" viewBox="0 0 26 26" fill="none" xmlns="http://www.w3.org/2000/svg">
<path d="M6.33752 18.5248C7.25835 17.8207 8.28752 17.2655 9.42502 16.8592C10.5625 16.453 11.7542 16.2498 13 16.2498C14.2459 16.2498 15.4375 16.453 16.575 16.8592C17.7125 17.2655 18.7417 17.8207 19.6625 18.5248C20.2945 17.7846 20.7865 16.945 21.1386 16.0061C21.4906 15.0672 21.6667 14.0651 21.6667 12.9998C21.6667 10.5984 20.8226 8.55366 19.1344 6.86546C17.4462 5.17727 15.4014 4.33317 13 4.33317C10.5986 4.33317 8.55384 5.17727 6.86564 6.86546C5.17745 8.55366 4.33335 10.5984 4.33335 12.9998C4.33335 14.0651 4.5094 15.0672 4.86148 16.0061C5.21356 16.945 5.70558 17.7846 6.33752 18.5248ZM13 14.0832C11.9347 14.0832 11.0365 13.7175 10.3052 12.9863C9.57398 12.255 9.20835 11.3568 9.20835 10.2915C9.20835 9.22623 9.57398 8.32796 10.3052 7.59671C11.0365 6.86546 11.9347 6.49984 13 6.49984C14.0653 6.49984 14.9636 6.86546 15.6948 7.59671C16.4261 8.32796 16.7917 9.22623 16.7917 10.2915C16.7917 11.3568 16.4261 12.255 15.6948 12.9863C14.9636 13.7175 14.0653 14.0832 13 14.0832ZM13 23.8332C11.5014 23.8332 10.0931 23.5488 8.77502 22.98C7.45696 22.4113 6.31044 21.6394 5.33544 20.6644C4.36044 19.6894 3.58856 18.5429 3.01981 17.2248C2.45106 15.9068 2.16669 14.4984 2.16669 12.9998C2.16669 11.5012 2.45106 10.0929 3.01981 8.77484C3.58856 7.45678 4.36044 6.31025 5.33544 5.33525C6.31044 4.36025 7.45696 3.58838 8.77502 3.01963C10.0931 2.45088 11.5014 2.1665 13 2.1665C14.4986 2.1665 15.907 2.45088 17.225 3.01963C18.5431 3.58838 19.6896 4.36025 20.6646 5.33525C21.6396 6.31025 22.4115 7.45678 22.9802 8.77484C23.549 10.0929 23.8334 11.5012 23.8334 12.9998C23.8334 14.4984 23.549 15.9068 22.9802 17.2248C22.4115 18.5429 21.6396 19.6894 20.6646 20.6644C19.6896 21.6394 18.5431 22.4113 17.225 22.98C15.907 23.5488 14.4986 23.8332 13 23.8332ZM13 21.6665C13.957 21.6665 14.8597 21.5266 15.7084 21.2467C16.557 20.9669 17.3334 20.5651 18.0375 20.0415C17.3334 19.5179 16.557 19.1162 15.7084 18.8363C14.8597 18.5564 13.957 18.4165 13 18.4165C12.0431 18.4165 11.1403 18.5564 10.2917 18.8363C9.44308 19.1162 8.66669 19.5179 7.96252 20.0415C8.66669 20.5651 9.44308 20.9669 10.2917 21.2467C11.1403 21.5266 12.0431 21.6665 13 21.6665ZM13 11.9165C13.4695 11.9165 13.8577 11.763 14.1646 11.4561C14.4715 11.1491 14.625 10.7609 14.625 10.2915C14.625 9.82206 14.4715 9.43386 14.1646 9.12692C13.8577 8.81998 13.4695 8.6665 13 8.6665C12.5306 8.6665 12.1424 8.81998 11.8354 9.12692C11.5285 9.43386 11.375 9.82206 11.375 10.2915C11.375 10.7609 11.5285 11.1491 11.8354 11.4561C12.1424 11.763 12.5306 11.9165 13 11.9165Z" fill="#181818"/>
</svg>
