<svg width="26" height="26" viewBox="0 0 26 26" fill="none" xmlns="http://www.w3.org/2000/svg">
<path d="M9.75002 19.5002H21.6667V16.6022H9.75002V19.5002ZM4.33335 9.39808H7.58335V6.50016H4.33335V9.39808ZM4.33335 14.4627H7.58335V11.5647H4.33335V14.4627ZM4.33335 19.5002H7.58335V16.6022H4.33335V19.5002ZM9.75002 14.4627H21.6667V11.5647H9.75002V14.4627ZM9.75002 9.39808H21.6667V6.50016H9.75002V9.39808ZM4.33335 21.6668C3.73752 21.6668 3.22745 21.4547 2.80315 21.0304C2.37884 20.6061 2.16669 20.096 2.16669 19.5002V6.50016C2.16669 5.90433 2.37884 5.39426 2.80315 4.96995C3.22745 4.54565 3.73752 4.3335 4.33335 4.3335H21.6667C22.2625 4.3335 22.7726 4.54565 23.1969 4.96995C23.6212 5.39426 23.8334 5.90433 23.8334 6.50016V19.5002C23.8334 20.096 23.6212 20.6061 23.1969 21.0304C22.7726 21.4547 22.2625 21.6668 21.6667 21.6668H4.33335Z" fill="#181818"/>
</svg>
