<svg width="20" height="20" viewBox="0 0 20 20" fill="none" xmlns="http://www.w3.org/2000/svg">
<path d="M17.8333 11.8748L11.875 17.8332C11.7083 17.9998 11.5208 18.1248 11.3125 18.2082C11.1042 18.2915 10.8958 18.3332 10.6875 18.3332C10.4792 18.3332 10.2708 18.2915 10.0625 18.2082C9.85416 18.1248 9.66666 17.9998 9.49999 17.8332L2.14582 10.479C1.99305 10.3262 1.87499 10.1491 1.79166 9.94775C1.70832 9.74636 1.66666 9.53456 1.66666 9.31234V3.33317C1.66666 2.87484 1.82985 2.48248 2.15624 2.15609C2.48263 1.8297 2.87499 1.6665 3.33332 1.6665H9.31249C9.53471 1.6665 9.74999 1.71164 9.95832 1.80192C10.1667 1.8922 10.3472 2.01373 10.5 2.1665L17.8333 9.52067C18 9.68734 18.1215 9.87484 18.1979 10.0832C18.2743 10.2915 18.3125 10.4998 18.3125 10.7082C18.3125 10.9165 18.2743 11.1214 18.1979 11.3228C18.1215 11.5241 18 11.7082 17.8333 11.8748ZM10.6875 16.6665L16.6458 10.7082L9.29166 3.33317H3.33332V9.2915L10.6875 16.6665ZM5.41666 6.6665C5.76388 6.6665 6.05902 6.54498 6.30207 6.30192C6.54513 6.05886 6.66666 5.76373 6.66666 5.4165C6.66666 5.06928 6.54513 4.77414 6.30207 4.53109C6.05902 4.28803 5.76388 4.1665 5.41666 4.1665C5.06943 4.1665 4.7743 4.28803 4.53124 4.53109C4.28818 4.77414 4.16666 5.06928 4.16666 5.4165C4.16666 5.76373 4.28818 6.05886 4.53124 6.30192C4.7743 6.54498 5.06943 6.6665 5.41666 6.6665Z" fill="#181818"/>
</svg>
