<svg width="20" height="20" viewBox="0 0 20 20" fill="none" xmlns="http://www.w3.org/2000/svg">
<path d="M4.33333 17.5001C3.81944 17.5001 3.38542 17.323 3.03125 16.9688C2.67708 16.6146 2.5 16.1806 2.5 15.6667V4.25006C2.5 3.84729 2.6875 3.56604 3.0625 3.40631C3.4375 3.24659 3.76389 3.30562 4.04167 3.5834L5.91667 5.4584L4.79167 6.5834L5.375 7.16673L6.5 6.04173L8.66667 8.2084L7.54167 9.3334L8.125 9.91673L9.25 8.79173L11.4167 10.9584L10.2917 12.0834L10.875 12.6667L12 11.5417L14.1667 13.7084L13.0417 14.8334L13.625 15.4167L14.75 14.2917L16.4167 15.9584C16.6944 16.2362 16.7535 16.5626 16.5938 16.9376C16.434 17.3126 16.1528 17.5001 15.75 17.5001H4.33333ZM5 15.0001H11.9167L5 8.0834V15.0001Z" fill="#181818"/>
</svg>
